<?xml version="1.0" encoding="utf-8"?>
<!-- Generator: Adobe Illustrator 19.2.0, SVG Export Plug-In . SVG Version: 6.00 Build 0)  -->
<svg version="1.1" id="Capa_1" xmlns="http://www.w3.org/2000/svg" xmlns:xlink="http://www.w3.org/1999/xlink" x="0px" y="0px"
	 viewBox="0 0 758.1 220.7" style="enable-background:new 0 0 758.1 220.7;" xml:space="preserve">
<style type="text/css">
	.st0{fill:#005A24;}
	.st1{fill:#ED1C24;}
	.st2{fill:#FFFFFF;}
</style>
<g>
	<g>
		<path class="st0" d="M436,204.9c-1.6,0-2.4-1.1-2.4-2.3l0-42c0-1.4,0.9-2.3,2.2-2.3h6.1c1.3,0,2.2,1,2.2,2.3l0,42
			c0,1.1-0.8,2.3-2.4,2.3H436z M321.8,203.1c-0.5,1.3-1.3,1.8-2.7,1.8h-2.3c-1.5,0-2.3-0.5-3-1.9c-2.9-6.2-11.6-24.7-11.6-24.7
			s-0.3,17.9-0.4,23.9c0,2-1,2.6-2.8,2.6h-4.4c-2,0-2.8-1.1-2.7-2.8c0.5-10.3,1.4-31,1.8-41.4c0.1-1.6,1-2.5,2.6-2.5h4
			c1.7,0,2.5,0.6,3.1,2c3.7,7.6,14.8,30.4,14.8,30.4s10.1-22.8,13.5-30.4c0.6-1.4,1.5-2.1,3-2.1h3.8c1.6,0,2.5,0.8,2.5,2.4
			c0.5,10.3,1.6,31,2.1,41.4c0.1,1.7-0.7,2.8-2.5,2.8h-5.3c-1.9,0-2.7-0.9-2.7-3.1c-0.2-5.9-0.7-23.5-0.7-23.5
			S324.3,196.9,321.8,203.1z M426.3,201.4c0.5,0.8,0.6,1.7,0.2,2.4c-0.4,0.7-1.1,1.1-2.1,1.1h-6.1c-1.5,0-2.6-0.6-3.4-1.9l-8-13.5
			l-8,13.5c-0.8,1.4-1.8,1.9-3.5,1.9h-5.3c-1.2,0-1.7-0.6-2-1c-0.4-0.7-0.3-1.6,0.2-2.4l13-20.6l-12.1-19.3
			c-0.5-0.8-0.5-1.7-0.2-2.3c0.4-0.6,1.1-1,1.9-1h6.2c0.9,0,2.3,0.3,3.2,1.9l7,11.8l7.2-12c0.8-1.3,1.6-1.7,3.1-1.7h5.8
			c0.9,0,1.6,0.4,1.9,1c0.4,0.7,0.3,1.6-0.3,2.4l-12.3,18.6L426.3,201.4z M453.8,181.6c0-15,7.9-24.1,21.2-24.1
			c4.6,0,8.5,0.8,13.2,2.7c2.1,0.9,1.8,2.5,1.5,3.3l-1.4,3.8c-0.3,0.7-0.7,1.2-1.2,1.4c-0.7,0.3-1.4,0-1.9-0.2c-2.9-1.3-5.9-2-8.8-2
			c-7.2,0-11.5,5.5-11.5,15s4.3,15,11.5,15c2.9,0,5.9-0.7,8.8-2c0.5-0.2,1.2-0.5,1.9-0.2c0.5,0.2,0.9,0.7,1.2,1.4l1.4,3.8
			c0.3,0.9,0.6,2.4-1.5,3.3c-4.7,1.9-8.6,2.7-13.2,2.7C461.7,205.6,453.8,196.5,453.8,181.6z M494.8,181.6c0,14.7,8,24.1,20.6,24.1
			c12.6,0,20.6-9.3,20.6-24.1c0-14.7-8-24.1-20.6-24.1C502.8,157.5,494.8,166.8,494.8,181.6z M505.8,181.6c0-9.9,3.2-15,9.6-15
			c6.4,0,9.6,5,9.6,15s-3.2,15-9.6,15C509,196.5,505.8,191.5,505.8,181.6z M360.7,151.9c-0.4-0.6-0.7-1.2-0.6-1.9
			c0.1-0.8,0.7-1.3,1.2-1.7l8.8-6.2c0.5-0.4,1.3-0.9,2.1-0.7c0.8,0.1,1.3,0.8,1.6,1.2l1.9,2.9c0.4,0.7,0.6,1.3,0.5,1.9
			c-0.1,0.6-0.6,1.1-1.2,1.4l-9.8,5.4c-0.6,0.3-1.1,0.5-1.5,0.5c-0.7,0-1.3-0.4-1.9-1.2L360.7,151.9z M379.6,204.9
			c1.7,0,2.6-0.9,2.6-2.6v-3.7c0-1.6-1-2.5-2.7-2.5h-16.1v-10.8h13.8c1.7,0,2.6-0.9,2.6-2.5v-3.8c0-1.6-0.9-2.5-2.6-2.5h-13.8v-9.5
			h15c1,0,3,0,3.2-2.3l0.4-3.8c0.1-0.5,0.1-1.3-0.4-2c-0.4-0.5-1.1-0.7-2-0.7h-24.6c-1.3,0-2.2,1-2.2,2.3l0,42
			c0,1.1,0.8,2.3,2.4,2.3H379.6z"/>
		<g>
			<path class="st0" d="M410.7,57.1c0,0-10,0-13.1,0c-3.2,0-5.6,0.8-8.1,3.7C387,63.7,371,82.1,371,82.1v-25h-18.2V121
				c0,2,1.6,3.6,3.6,3.6H371V94c0,0,13.6,21.3,16,25.1c2.4,3.7,4.8,5.6,10.2,5.6c5.4,0,14.9,0,14.9,0l-25.5-39.9L410.7,57.1
				L410.7,57.1z M333.8,57.1c0,0-39.4,0-40.5,0l0,0v61.5c0,3.4,3.3,6,6.8,6h33.7c2,0,3.6-1.6,3.6-3.6v-8.7h-23.2
				c-1.5,0-2.7-1.2-2.7-2.8V95.3h20.7V83h-20.7V69.4h26v-8.7C337.5,58.7,335.8,57.1,333.8,57.1L333.8,57.1z M461.7,57.1
				c0,0-39.4,0-40.5,0l0,0v61.5c0,3.4,3.3,6,6.8,6h33.7c2,0,3.6-1.6,3.6-3.6v-8.7h-23.2c-1.5,0-2.7-1.2-2.7-2.8V95.3h20.7V83h-20.7
				V69.4h26v-8.7C465.4,58.7,463.7,57.1,461.7,57.1L461.7,57.1z M204.1,57.1h-18.2V121c0,2,1.6,3.6,3.6,3.6h14.5V57.1L204.1,57.1z
				 M165.7,57.1c0,0-39.4,0-40.5,0l0,0v61.5c0,3.5,3.3,6,6.8,6h33.7c2,0,3.6-1.6,3.6-3.6v-8.7h-23.2c-1.5,0-2.7-1.2-2.7-2.8V95.3
				h20.7V83h-20.7V69.4h25.9v-8.7C169.3,58.7,167.7,57.1,165.7,57.1L165.7,57.1z M106.8,57.1H88.7V83H72.8V57.1H51.7v2.7
				c0,0,2.9,1.1,2.9,4.5v60.4h18.2V95.3h15.9v29.3h18.2V57.1L106.8,57.1z M275,57.1V121c0,2-1.6,3.6-3.6,3.6h-11.2l-24.5-38.7
				c0,0,0.5,3.2,0.5,7.2c0,4,0,31.5,0,31.5h-13.6V57.1c0,0,2.1,0,8.8,0c4.5,0,7.8,1.9,10.1,5.6c2,3.1,20.6,32.3,20.6,32.3
				s-0.7-2-0.7-7.3c0-5.3,0-30.6,0-30.6H275L275,57.1z M536,57.1v2.7c0,0-2.9,1.1-2.9,4.5l0,56.8c0,2-1.6,3.6-3.6,3.6h-11.2
				l-24.5-38.7c0,0,0.5,3.2,0.5,7.2c0,4,0,31.5,0,31.5h-13.6V57.1c0,0,2.1,0,8.8,0c4.5,0,7.8,1.9,10.1,5.6
				c2,3.1,20.5,32.3,20.5,32.3s-0.7-2-0.7-7.3c0-5.3,0-30.6,0-30.6H536z"/>
			<path class="st1" d="M17.8,81.7c-0.9,0.7-2.1-0.2-1.8-1.3c0.5-1.5,9.6-29.6,9.6-29.6L0.5,32.5c-0.9-0.7-0.4-2.1,0.7-2.1
				c1.6,0,31.2,0,31.2,0s9.1-28.1,9.6-29.6c0.3-1.1,1.8-1.1,2.2,0c0.5,1.5,9.6,29.6,9.6,29.6s29.6,0,31.1,0c1.1,0,1.6,1.4,0.7,2.1
				l-15,10.9H52.7l-5.5-16.9l-5.5,16.9H23.9l14.4,10.5l-5.5,16.9C32.8,70.8,18.7,81,17.8,81.7z"/>
		</g>
	</g>
	<g>
		<circle class="st2" cx="662.4" cy="125.1" r="95.7"/>
		<path class="st0" d="M670.4,139.3c0.3-0.9,0.5-1.9,0.3-3.3c-0.6-2.9-2.3-7-4.1-10.2v-11.7c0,0,0-28.2,0-43.7
			c0-20.3-1.5-34.1-10.6-40.8c2.1-0.1,4.3-0.2,6.4-0.2c8.8,0,17.3,1.2,25.3,3.4c-5.5,4.6-7.9,10.4-9.5,18.6
			c5.2-7.6,12.5-13,20.4-14.9c7.6,3.1,14.8,7.2,21.3,12.1c-18,0-27.8,10.3-35.1,24.7c14.3-13.9,32.5-19.2,48.3-12.7
			c5.8,6.4,10.8,13.5,14.7,21.3c-7.6-5.5-22-10.7-29.4-4c2.3,8.9-5.9,8.3-14.3,6.9c-17.7-3-21.2,15.4-10.9,21.2
			c6.4,2.9,13.8,0,15.1-5.2c0.8-3-1.7-5.9-5.3-5c2.8,5.6-7.6,7-8.1,0.6c-0.2-3,2.7-4.7,8.4-4.9c27.1-1.2,44.9-2.8,51.8,14.2
			c4,9.8,3.4,21.1,0.8,24.5c-4-5.9-11.5-10.1-39-9.1c-4.3,0.2-5.6,4-5.6,4h7.6c1.4,1.7,4.6,7.4,6.1,10.5c0.5,1,1.5,3.4,0.7,4.3
			c-3.3-0.5-8-0.5-10-0.4c-2.6,0.1-10.1,1.5-15.1,3.4c-1.5,0.6-1.3,0.8,0.2,0.9c0.9,0,1.3,0,2.6,0c1.6,1.3,4,2.2,6.3,2.7
			c2.1,0.5,3.8,0.4,5.1,0.2c1.2-0.2,2.8-0.4,3.4,0.3c0.3,0.4,0.5,0.3,0.5-0.3c0-0.7-0.5-1.9-1.3-2.7c-0.3-0.4-0.2-0.7,0.2-0.6
			c1.2,0.1,3.8-0.1,4.9-0.6c0.2-0.1,0.5-0.1,0.4,0.2c-0.3,1.1,0.3,2.3,1.3,3.1c2.2,1.6,4.4,3,7.8,9c3.6,6.5,4.5,9.6,0.8,11.1
			c-2.4,1-3.5,1.3-5.3,1.7c-0.8,0.2-0.8,0.2-0.6,1c0.2,1,0.5,2.5,0.6,3.5c0.1,0.8,0.2,1.7-1.4,2.3c-1.7,0.6-6.4,1.4-8.4,1.7
			c-0.3,0.1-0.3,0.5,0.1,0.5c1.9-0.1,4.4,0,6.1,0.2c0.8,0.1,3.3,2.5,3.3,3.3c0,1.9-0.9,3.8-2.5,5.2c-0.9,0.8-0.9,0.9-0.3,2.4
			c0.6,1.3,1.9,4.3,0.8,6.7c-3.7,8.3-14,6.9-25.6,5.8c-5.5-0.5-6-0.4-6.1,3c-0.1,3.8,0.1,7.3,0.5,11.7c-9.9,3.4-20.5,5.3-31.5,5.3
			c-6.3,0-12.4-0.6-18.3-1.7c-0.7-5.3-0.9-12-0.1-15.1c0.8-2.9,3.9-2.6,6.1-2.3c4.6,0.7,9.5,1.1,13.1,0.9c4.3-0.2,6-1.5,7-4.4
			c1-3-0.4-6.7-1-8.1c-0.8-1.9-0.3-1.9,1.8-4.2c1.5-1.6,1.6-2.2,1.2-3.2c-0.5-1.1-1.4-2.3-2.4-3.1c-0.2-0.2-0.3-0.2-0.8-0.2
			c-2.5,0.2-4.6,0.1-6.6,0c-0.3,0-0.3-0.4,0-0.4c3.7-0.8,6.2-1.6,8.6-2.8c0.6-0.3,0.7-0.6,0.5-1.2c-0.4-1.2-0.9-2.6-1.5-3.8
			c-0.4-0.7-0.2-1,0.7-1c1.6-0.1,3.9-0.5,5.4-1.4c2.5-1.5,2.8-2.9,1.9-5.8c-0.8-2.6-2.6-6.8-4.1-9.6c-1.7-3.2-2.4-4.1-3.3-4.9
			c-1.2-1.1-2.7-2.8-2.8-3.4c-0.1-0.5,0.2-0.9,0.4-1.6c0.6-1.6,0.9-2.8,1-4.2C669.7,139.2,670.1,139.3,670.4,139.3z"/>
		<path class="st1" d="M622.5,38.1c6.7-3.1,13.8-5.4,21.3-6.9c6.3,14.3,5.9,27,1.2,38C642.4,52.6,632.2,41.7,622.5,38.1z
			 M630.3,88.9c3.2-2.9,6.1-6.1,8.6-9.4c-3.5-16.7-15.9-29.1-33.1-31.6c-8.5,6.3-16,13.9-22.1,22.6
			C605.2,62.5,623.8,75.8,630.3,88.9z M621.5,95.8c-11-14.9-33.2-13.4-48.3-5.4c-3.2,8.2-5.3,17-6.1,26.2
			C585.6,113.6,605.8,106.6,621.5,95.8z M614.8,208.1c-5.7-17.2,1.8-34.4,28.7-30.8c1.6-7-0.9-10.9-6.8-13.3
			c-18-7.5-4.9-31.4,11.3-38.2h18.6v-11.7c-24.8,0-37.5,0.7-45.7,2.3c-6.8,1.3-11.2,4.3-10.1,9.4c1.5,6.9,11.7,5.8,8.5-0.7
			c3.9-1,6.8,2.1,6.1,5.5c-0.6,2.9-2,4.8-5.7,6.4c-5.4,2.3-28.3,7.7-35.4,43.2C592.3,191.6,602.7,201.1,614.8,208.1z M608.5,136.7
			c-4.2-2.4-7.4-9.1-4-15.2c-5.7,1.7-14.7,3.1-37.6,3.2c0,0.1,0,0.3,0,0.4c0,14,3,27.2,8.4,39.2
			C583.3,149.1,595.9,139.2,608.5,136.7z M668.4,143.1c0.5-1.4,0.7-2.6,0.9-3.9c-1.7-0.1-4.9-0.2-7.2,0c-4.2,0.2-11.2,1.8-16,3.4
			c-0.2,0.1-0.4,0.1-0.5,0.2c-1.7,0.7-1.1,1.3,0.3,1.3c1.3,0.1,2,0,2.8,0c1.7,1.4,4.4,2.8,6.9,3.3c2.2,0.5,3.8,0.5,5.2,0.1
			c1.6-0.4,3-0.3,3.7,0.3c0.3,0.3,0.6,0.1,0.6-0.3c-0.1-0.7-0.5-1.7-1.2-2.6c-0.5-0.6-0.2-0.9,0.2-0.9c0.9,0,2-0.1,2.9-0.3
			C667.3,143.6,668,143.3,668.4,143.1z"/>
	</g>
</g>
</svg>
