<?xml version="1.0" encoding="utf-8"?>
<!-- Generator: Adobe Illustrator 23.0.1, SVG Export Plug-In . SVG Version: 6.00 Build 0)  -->
<svg version="1.1" id="Capa_1" xmlns="http://www.w3.org/2000/svg" xmlns:xlink="http://www.w3.org/1999/xlink" x="0px" y="0px"
	 viewBox="0 0 74.8 74.8" style="enable-background:new 0 0 74.8 74.8;" xml:space="preserve">
<style type="text/css">
	.st0{fill:#FFFFFF;}
	.st1{fill:#045E2C;}
	.st2{fill:#E20714;}
</style>
<g>
	<circle class="st0" cx="37.4" cy="37.4" r="37.4"/>
	<g>
		<path class="st1" d="M40.4,42.9c0.1-0.4,0.2-0.7,0.1-1.3c-0.2-1.2-0.9-2.7-1.7-4V33c0,0,0-11,0-17c0-7.9-0.6-13.3-4.1-15.9
			c0.8,0,1.7-0.1,2.5-0.1c3.4,0,6.7,0.5,9.9,1.3c-2.1,1.8-3.1,4-3.7,7.2c2-2.9,4.8-5.1,7.9-5.8c2.9,1.2,5.8,2.8,8.3,4.7
			c-7.1,0-10.9,4-13.7,9.7c5.5-5.4,12.6-7.6,18.9-5c2.2,2.5,4.2,5.3,5.8,8.3c-2.9-2.1-8.6-4.1-11.4-1.5c0.8,3.5-2.2,3.3-5.5,2.7
			c-6.8-1.2-8.3,6-4.2,8.3c2.5,1.1,5.3,0,5.9-2c0.4-1.2-0.7-2.4-2.1-1.9c1.1,2.2-2.9,2.7-3.2,0.2c-0.1-1.2,1.1-1.8,3.3-1.9
			c10.6-0.5,17.5-1.1,20.2,5.5c1.5,3.8,1.3,8.3,0.4,9.6c-1.5-2.4-4.5-3.9-15.2-3.5c-1.7,0.1-2.2,1.5-2.2,1.5h2.9
			c0.6,0.7,1.8,2.8,2.4,4.1c0.2,0.4,0.6,1.3,0.2,1.7c-1.3-0.2-3.1-0.2-3.9-0.1c-0.9,0-3.9,0.6-5.9,1.3c-0.6,0.2-0.5,0.4,0.1,0.4
			c0.4,0,0.5,0,1.1,0c0.6,0.5,1.5,0.8,2.5,1.1c0.8,0.2,1.5,0.1,2,0.1c0.5-0.1,1.1-0.1,1.3,0.1c0.1,0.1,0.2,0.1,0.2-0.1
			c0-0.2-0.2-0.7-0.5-1.1c-0.1-0.1-0.1-0.2,0.1-0.2c0.5,0,1.5,0,1.9-0.2c0.1,0,0.2,0,0.1,0.1c-0.1,0.5,0.1,0.9,0.5,1.2
			c0.8,0.6,1.8,1.2,3.1,3.5c1.4,2.5,1.8,3.8,0.4,4.4c-0.9,0.4-1.3,0.5-2.1,0.7c-0.4,0.1-0.4,0.1-0.2,0.4c0.1,0.4,0.2,0.9,0.2,1.3
			c0,0.4,0.1,0.7-0.6,0.9c-0.6,0.2-2.5,0.6-3.3,0.7c-0.1,0-0.1,0.2,0,0.2c0.7,0,1.7,0,2.4,0.1c0.4,0,1.3,0.9,1.3,1.3
			c0,0.7-0.4,1.5-0.9,2c-0.4,0.4-0.4,0.4-0.1,0.9c0.2,0.5,0.7,1.7,0.4,2.6c-1.4,3.2-5.4,2.7-9.9,2.2c-2.1-0.2-2.4-0.1-2.4,1.2
			c0,1.5,0,2.8,0.2,4.5c-3.9,1.3-8,2.1-12.3,2.1c-2.5,0-4.8-0.2-7.1-0.7c-0.2-2.1-0.4-4.7,0-5.9s1.5-1.1,2.4-0.8
			c1.8,0.2,3.8,0.5,5.1,0.4c1.7-0.1,2.4-0.6,2.7-1.7c0.4-1.2-0.1-2.6-0.4-3.2c-0.4-0.7-0.1-0.7,0.7-1.7c0.6-0.6,0.6-0.8,0.5-1.3
			c-0.2-0.5-0.6-0.8-0.9-1.2c-0.1-0.1-0.1-0.1-0.4-0.1c-0.9,0.1-1.8,0-2.6,0c-0.1,0-0.1-0.1,0-0.1c1.4-0.4,2.4-0.6,3.3-1.1
			C41,57.3,41,57.2,41,57c-0.1-0.5-0.4-1.1-0.6-1.4c-0.1-0.2-0.1-0.4,0.2-0.4c0.6,0,1.5-0.2,2.1-0.6c0.9-0.6,1.1-1.1,0.7-2.2
			c-0.4-1.1-1.1-2.7-1.5-3.8c-0.7-1.3-0.9-1.5-1.3-1.9c-0.5-0.5-1.1-1.1-1.1-1.3c0-0.2,0.1-0.4,0.1-0.6c0.2-0.6,0.4-1.1,0.4-1.7
			C40.2,42.9,40.3,42.9,40.4,42.9z"/>
		<path class="st2" d="M21.8,3.5c2.6-1.2,5.4-2.1,8.3-2.7c2.5,5.5,2.4,10.5,0.5,14.7C29.6,9.1,25.6,5,21.8,3.5z M24.9,23.2
			c1.3-1.2,2.4-2.4,3.4-3.7C27,13.1,22.2,8.3,15.4,7.3c-3.3,2.5-6.3,5.4-8.6,8.8C15.1,13,22.3,18.2,24.9,23.2z M21.5,26
			c-4.2-5.8-13-5.2-18.8-2.1C1.4,27,0.6,30.4,0.3,34C7.4,32.9,15.3,30.2,21.5,26z M18.9,69.7c-2.2-6.7,0.7-13.4,11.2-12
			c0.6-2.7-0.4-4.2-2.6-5.2c-7-2.9-1.9-12.3,4.4-14.9H39V33c-9.7,0-14.6,0.2-17.8,0.9c-2.7,0.5-4.4,1.7-3.9,3.7
			c0.6,2.7,4.6,2.2,3.3-0.2c1.5-0.4,2.6,0.8,2.4,2.1c-0.2,1.2-0.8,1.9-2.2,2.5C18.6,42.9,9.7,45,6.9,58.9C10,63.2,14.1,67,18.9,69.7
			z M16.4,41.9c-1.7-0.9-2.9-3.5-1.5-5.9c-2.2,0.7-5.8,1.2-14.6,1.2v0.1c0,5.4,1.2,10.6,3.3,15.2C6.6,46.7,11.4,42.9,16.4,41.9z
			 M39.7,44.4c0.2-0.6,0.2-0.9,0.4-1.5c-0.7,0-1.9-0.1-2.8,0c-1.7,0.1-4.4,0.7-6.3,1.3c-0.1,0-0.1,0-0.2,0.1
			c-0.7,0.2-0.5,0.5,0.1,0.5c0.5,0,0.8,0,1.1,0c0.7,0.6,1.8,1.1,2.7,1.3c0.8,0.2,1.5,0.2,2,0c0.6-0.1,1.2-0.1,1.4,0.1
			c0.1,0.1,0.2,0,0.2-0.1c0-0.2-0.2-0.7-0.5-0.9c-0.2-0.2-0.1-0.4,0.1-0.4c0.4,0,0.7,0,1.2-0.1C39.3,44.6,39.5,44.5,39.7,44.4z"/>
	</g>
</g>
</svg>
